# E47 canonical 47-face polar-dual crystal
# Coupled basis convention: ((2⊗2)->j12)⊗2->J, Condon-Shortley
v 1.8213863811569442e-01 -2.0138130522189904e-01 1.2000000000000000e+00
v 1.0000000000000002e+00 -5.5060798479241313e-01 3.7145283095132781e-01
v -2.1464231748602006e-01 1.1212037408345519e+00 -3.7145283095132736e-01
v 5.3414435312717623e-01 2.0163235055417866e-01 -9.8358521701555557e-01
v 1.5189007830449247e-01 2.2126536987685047e-01 -1.2000000000000000e+00
v -2.7844491409624715e-02 5.9466467819651969e-01 -9.6153142550938975e-01
v 3.9107381594083612e-01 7.0243680926429775e-01 6.9506072107201755e-01
v -5.1987353486553511e-01 7.9085569205918183e-01 6.4395009765994715e-01
v -2.0523615599555356e-01 3.1221474320175119e-01 1.1620478260312213e+00
v -2.0235369937209352e-01 2.2373205662242523e-01 1.2000000000000000e+00
v -3.3185928493320582e-01 -1.1592898422908338e+00 5.7229519515698227e-02
v 7.8434074055893310e-01 7.9661446907276579e-01 1.6520381494965400e-01
v 1.0000000000000000e+00 3.3433647569106981e-02 1.6307015232278618e-01
v -1.9075670281876123e-01 1.1134428341725300e+00 -3.9491649957691738e-01
v -4.4266787851949825e-02 9.4538969182515686e-01 -6.4395009765994704e-01
v 8.4708264533055710e-01 7.7622838843329578e-01 1.6476074297934115e-02
v 9.0256261160197326e-01 7.1405672056243541e-01 -7.4079857781642847e-02
v 9.6448034665501037e-01 5.6403607572077652e-01 -3.8072154327996277e-01
v 9.6192299799629533e-01 6.0223845891312489e-01 -2.8645691594912187e-01
v -1.0193818326617266e+00 2.5609754161386022e-01 1.1847395202603496e-01
v -5.0013986282603740e-01 1.0129181518033892e+00 3.9491649957691743e-01
v -8.9608122451823458e-01 4.6795162000351126e-01 -2.5265061830812369e-01
v -1.0071756637990208e+00 3.1504324231255487e-01 6.9714968903366509e-02
v -9.7726326621634763e-01 3.5621412554329168e-01 -9.0585282157360988e-02
v -8.8257902390167098e-01 4.6090049954785128e-01 -2.9404782818197156e-01
v 9.1351565391002854e-01 -7.5464299546581592e-01 -4.2809674424479575e-02
v -1.8490706111268548e-01 -2.8128918280236359e-01 -1.1955227358352793e+00
v -1.8505007753677444e-01 -2.6957108923093642e-01 -1.2000000000000000e+00
v -8.8055575777854700e-01 -2.0483515896462377e-02 -5.7085940813896274e-01
v 7.2148981204775409e-01 3.3480672998751909e-01 6.2311578817579560e-01
v 4.6669857235810341e-01 -1.7617247022068375e-01 1.0487923057644359e+00
v 5.8033175958499861e-01 2.6930245651437723e-01 7.9467644712000018e-01
v 4.3512950628829161e-01 7.8156851610882938e-01 6.0438178994582781e-01
v -4.8537774111948861e-01 1.0332364692280775e+00 3.7145283095132786e-01
v 6.5403235248108349e-01 8.3895423094362054e-01 3.3357132938331852e-01
v 6.0735735867567164e-01 8.1474129067984524e-01 4.2464012248132943e-01
v -3.3185928493320571e-01 1.1592898422908340e+00 -5.7229519515698588e-02
v -4.1293367117893748e-01 1.1329471773396012e+00 5.7229519515697727e-02
v -4.4266787851950387e-02 -9.4538969182515675e-01 6.4395009765994737e-01
v -3.2106613238257822e-02 -6.8568926429408206e-01 8.7910870743539904e-01
v -1.9075670281876189e-01 -1.1134428341725300e+00 3.9491649957691766e-01
v -2.1464231748601953e-01 -1.1212037408345514e+00 3.7145283095132853e-01
v -4.8537774111948906e-01 -1.0332364692280773e+00 -3.7145283095132853e-01
v -4.1293367117893809e-01 -1.1329471773396012e+00 -5.7229519515698338e-02
v 1.0000000000000000e+00 -6.3585127786090323e-01 1.5412544113519633e-01
v 9.9317550076885730e-01 -6.5237027342591769e-01 1.2036881006170734e-01
v 1.0000000000000000e+00 3.3433647569106967e-02 -1.1034286536192600e-01
v 7.1876956196220176e-01 -8.1791983650404954e-01 -3.5923272609313095e-01
v 8.8385413623132658e-01 -7.6428060677978704e-01 -1.1959432720130121e-01
v -6.5517952447317096e-01 3.5068447824459961e-02 -8.2853529349364918e-01
v -7.7909615726982462e-01 4.1701078743911352e-02 -7.0153858134980462e-01
v -5.3999334992141412e-01 4.3827494912601850e-01 -7.4016098801857788e-01
v -6.7447395935123189e-01 5.4742348264937934e-01 -5.5092974393995531e-01
v -7.3268164127413937e-01 5.0529262563220012e-01 -5.1409051320826782e-01
v 8.6134016856049256e-01 2.0526777580608854e-01 5.0811506545328589e-01
v 8.6009599276048354e-01 2.0139745734946410e-01 5.1306180797263079e-01
v 9.4181872904378672e-01 2.2444678975836929e-01 2.7528798999309512e-01
v 1.0000000000000000e+00 7.0610983197845244e-03 1.9414756909336808e-01
v 1.0000000000000000e+00 -5.2549316326707951e-01 3.9491649957691727e-01
v 8.8543983711593943e-01 -3.3424169812291998e-01 6.4395009765994726e-01
v -6.6297993300941804e-01 -8.0154448177907733e-02 8.3817822909905793e-01
v -7.7872058458737137e-01 -9.4147523378346018e-02 7.2263976529541540e-01
v -4.9646457169336872e-01 -4.6124029249074100e-01 7.5053303811659688e-01
v -6.3809285222403489e-01 -5.9282001290082420e-01 5.3672983205087299e-01
v -6.6573163152721959e-01 -5.6927358917160231e-01 5.2615263992341466e-01
v -1.0114227882336511e+00 1.3720312960238570e-01 2.9792458507630215e-01
v -9.7794400346690569e-01 9.3272932580329704e-02 4.4025154668319111e-01
v -5.1987353486553523e-01 -7.9085569205918294e-01 -6.4395009765994626e-01
v -5.0013986282603784e-01 -1.0129181518033887e+00 -3.9491649957691832e-01
v -9.8790252286834901e-01 -2.1414911453097432e-01 -2.5316249774654737e-01
v -9.7859441926970636e-01 -3.5319614640815372e-01 -8.9638502350460655e-02
v -9.7797380060860872e-01 -3.5523615885191029e-01 -8.8444397061729851e-02
v -9.5055913452897345e-01 -1.4079921013781074e-01 -4.4461135184723294e-01
v -9.4707460915410691e-01 -1.4028307347396241e-01 -4.5397880334360546e-01
v 9.6688705116094753e-01 -1.6309355091449027e-01 -2.2814641604200991e-01
v 8.6677690502455673e-01 -6.0197166157538999e-02 -5.4756538081387174e-01
v 8.8126663412043416e-01 -1.4865118370194971e-01 -4.7360141468819533e-01
v 8.8543983711593943e-01 3.3424169812291987e-01 -6.4395009765994726e-01
v 9.7037163678565896e-01 4.7603035061115878e-01 -4.5932333796493097e-01
v 9.7061020272232412e-01 4.7246658651584628e-01 -4.5731108008781041e-01
v 5.9926328649190419e-01 -2.3080192686487538e-01 -7.8563467008460586e-01
v 7.5418949383712930e-01 -2.9047063673440332e-01 -6.0095138693105365e-01
v 7.0222573999316829e-01 -8.0948837310126176e-01 -3.9109235764939104e-01
v 4.6162989302143115e-01 -7.1258439129210494e-01 -6.8003818156970164e-01
v 4.9560783266462660e-01 -7.6503365812691593e-01 -6.1968547565198495e-01
v -8.8149781373067160e-01 -5.0459394434902945e-02 5.9788564546817513e-01
v -9.6388962605260942e-01 5.0825729825116413e-02 4.7171245295378827e-01
v -9.2554659438481524e-01 -4.2739601763915336e-01 1.3047079881437110e-01
v -8.2267077355613683e-01 -5.0224425290389063e-01 3.3590377841756691e-01
v -8.5626513612670641e-01 -5.2275376420949282e-01 2.2711346123655013e-01
# F01 <-> |J=2,j12=0,m=-2>
f 4 78 76 82 81
# F02 <-> |J=2,j12=0,m=-1>
f 77 76 78 79 80 75
# F03 <-> |J=2,j12=0,m=0>
f 45 47 13 58 59 2
# F04 <-> |J=2,j12=0,m=1>
f 59 58 57 55 56 60
# F05 <-> |J=2,j12=0,m=2>
f 31 60 56 30 32
# F06 <-> |J=2,j12=1,m=-2>
f 15 18 79 78 4 5 6
# F07 <-> |J=2,j12=1,m=-1>
f 14 16 17 19 18 15
# F08 <-> |J=2,j12=1,m=0>
f 35 12 16 14 3 37
# F09 <-> |J=2,j12=1,m=1>
f 34 33 36 35 37 38
# F10 <-> |J=2,j12=1,m=2>
f 9 7 33 34 21 8
# F11 <-> |J=2,j12=2,m=-2>
f 3 14 15 6 52 53
# F12 <-> |J=2,j12=2,m=-1>
f 38 37 3 53 54 25 22
# F13 <-> |J=2,j12=2,m=0>
f 21 34 38 22 24 23
# F14 <-> |J=2,j12=2,m=1>
f 66 67 8 21 23 20
# F15 <-> |J=2,j12=2,m=2>
f 86 62 61 10 9 8 67 87
# F16 <-> |J=2,j12=3,m=-2>
f 29 51 50 28 27 68 74
# F17 <-> |J=2,j12=3,m=-1>
f 70 73 74 68 69 72 71
# F18 <-> |J=2,j12=3,m=0>
f 69 43 44 90 88 72
# F19 <-> |J=2,j12=3,m=1>
f 44 11 42 64 65 89 90
# F20 <-> |J=2,j12=3,m=2>
f 42 41 39 40 63 64
# F21 <-> |J=2,j12=4,m=-2>
f 27 84 85 43 69 68
# F22 <-> |J=2,j12=4,m=-1>
f 43 85 83 48 11 44
# F23 <-> |J=2,j12=4,m=0>
f 48 49 26 41 42 11
# F24 <-> |J=2,j12=4,m=1>
f 41 26 46 45 2 39
# F25 <-> |J=2,j12=4,m=2>
f 40 39 2 59 60 31 1
# F26 <-> |J=5,j12=3,m=-5>
f 5 4 81 84 27 28
# F27 <-> |J=5,j12=3,m=-4>
f 81 82 83 85 84
# F28 <-> |J=5,j12=3,m=-3>
f 82 76 77 49 48 83
# F29 <-> |J=5,j12=3,m=-2>
f 77 75 46 26 49
# F30 <-> |J=5,j12=3,m=-1>
f 75 80 47 45 46
# F31 <-> |J=5,j12=3,m=0>
f 80 79 18 19 13 47
# F32 <-> |J=5,j12=3,m=1>
f 19 17 57 58 13
# F33 <-> |J=5,j12=3,m=2>
f 55 57 17 16 12
# F34 <-> |J=5,j12=3,m=3>
f 30 56 55 12 35 36
# F35 <-> |J=5,j12=3,m=4>
f 32 30 36 33 7
# F36 <-> |J=5,j12=3,m=5>
f 10 1 31 32 7 9
# F37 <-> |J=5,j12=4,m=-5>
f 52 6 5 28 50
# F38 <-> |J=5,j12=4,m=-4>
f 54 53 52 50 51
# F39 <-> |J=5,j12=4,m=-3>
f 25 54 51 29
# F40 <-> |J=5,j12=4,m=-2>
f 24 22 25 29 74 73
# F41 <-> |J=5,j12=4,m=-1>
f 20 23 24 73 70
# F42 <-> |J=5,j12=4,m=0>
f 66 20 70 71
# F43 <-> |J=5,j12=4,m=1>
f 87 67 66 71 72 88
# F44 <-> |J=5,j12=4,m=2>
f 88 90 89 86 87
# F45 <-> |J=5,j12=4,m=3>
f 89 65 62 86
# F46 <-> |J=5,j12=4,m=4>
f 65 64 63 61 62
# F47 <-> |J=5,j12=4,m=5>
f 63 40 1 10 61